<svg width="25" height="18" viewBox="0 0 25 18" fill="none" xmlns="http://www.w3.org/2000/svg">
<g clip-path="url(#clip0_9566_129)">
<path d="M6.26677 9.00001H7.4001V7.30001H9.1001V6.16667H7.4001V4.46667H6.26677V6.16667H4.56677V7.30001H6.26677V9.00001ZM4.0001 14.1C3.37676 14.1 2.87243 14.61 2.87243 15.2333C2.87243 15.8567 3.37676 16.3667 4.0001 16.3667C4.62343 16.3667 5.13343 15.8567 5.13343 15.2333C5.13343 14.61 4.62343 14.1 4.0001 14.1ZM9.66677 14.1C9.04343 14.1 8.5391 14.61 8.5391 15.2333C8.5391 15.8567 9.04343 16.3667 9.66677 16.3667C10.2901 16.3667 10.8001 15.8567 10.8001 15.2333C10.8001 14.61 10.2901 14.1 9.66677 14.1ZM4.09643 12.2583L4.11343 12.1903L4.62343 11.2667H8.8451C9.2701 11.2667 9.6441 11.0343 9.83677 10.683L12.0241 6.71068L11.0381 6.16667H11.0324L10.4091 7.30001L8.8451 10.1333H4.8671L4.79343 9.98034L3.5241 7.30001L2.98576 6.16667L2.4531 5.03334H0.600098V6.16667H1.73343L3.77343 10.4677L3.00843 11.856C2.91776 12.0147 2.86676 12.2017 2.86676 12.4C2.86676 13.0233 3.37676 13.5333 4.0001 13.5333H10.8001V12.4H4.2381C4.16443 12.4 4.09643 12.3377 4.09643 12.2583Z" fill="white"/>
</g>
<path d="M23.8185 9.20508C23.8185 9.90039 23.7657 10.5215 23.6603 11.0684C23.5548 11.6152 23.3888 12.0781 23.1622 12.457C22.9357 12.8359 22.6427 13.125 22.2833 13.3242C21.9239 13.5195 21.4923 13.6172 20.9884 13.6172C20.3517 13.6172 19.8243 13.4434 19.4064 13.0957C18.9923 12.748 18.6818 12.2461 18.4747 11.5898C18.2716 10.9297 18.17 10.1348 18.17 9.20508C18.17 8.29102 18.2618 7.50586 18.4454 6.84961C18.6329 6.18945 18.9337 5.68359 19.3478 5.33203C19.7618 4.97656 20.3087 4.79883 20.9884 4.79883C21.6329 4.79883 22.1642 4.97461 22.5821 5.32617C23.0001 5.67383 23.3107 6.17773 23.5138 6.83789C23.7169 7.49414 23.8185 8.2832 23.8185 9.20508ZM19.1486 9.20508C19.1486 10.002 19.2091 10.666 19.3302 11.1973C19.4513 11.7285 19.6466 12.127 19.9161 12.3926C20.1896 12.6543 20.547 12.7852 20.9884 12.7852C21.4298 12.7852 21.7853 12.6543 22.0548 12.3926C22.3282 12.1309 22.5255 11.7344 22.6466 11.2031C22.7716 10.6719 22.8341 10.0059 22.8341 9.20508C22.8341 8.41992 22.7736 7.76367 22.6525 7.23633C22.5314 6.70508 22.3361 6.30664 22.0665 6.04102C21.797 5.77148 21.4376 5.63672 20.9884 5.63672C20.5392 5.63672 20.1798 5.77148 19.9103 6.04102C19.6407 6.30664 19.4454 6.70508 19.3243 7.23633C19.2071 7.76367 19.1486 8.41992 19.1486 9.20508Z" fill="white"/>
<defs>
<clipPath id="clip0_9566_129">
<rect width="13.6" height="13.6" fill="white" transform="translate(0.0334473 3.89999)"/>
</clipPath>
</defs>
</svg>
